<svg xmlns="http://www.w3.org/2000/svg" xmlns:svg="http://www.w3.org/2000/svg" xmlns:xlink="http://www.w3.org/1999/xlink" id="svg2872" width="283.289" height="283.288" version="1.1"><metadata id="metadata2942"/><defs id="defs2874"><radialGradient id="radialGradient3033" cx="182.984" cy="395.049" r="148.953" fx="182.984" fy="395.049" gradientTransform="matrix(0.22914334,-0.24901479,0.7643572,0.83064268,-272.85337,-159.69482)" gradientUnits="userSpaceOnUse" xlink:href="#linearGradient3755"/><linearGradient id="linearGradient3755"><stop id="stop3757" offset="0" style="stop-color:#008cbe;stop-opacity:1"/><stop id="stop3759" offset="1" style="stop-color:#b2ffff;stop-opacity:1"/></linearGradient></defs><g id="layer1" transform="translate(-233.35544,-390.71802)"><g id="g3025" transform="matrix(8.4519723,0,0,8.4519723,-278.45012,-403.82975)"><path id="path5874" d="m 66.432103,97.488679 c -5.19584,5.646431 -3.93661,16.169031 2.81107,23.501871 6.74768,7.33285 16.42898,8.69955 21.62483,3.05312 5.19585,-5.64643 3.9402,-16.16946 -2.80749,-23.5023 -6.74768,-7.332861 -16.43256,-8.699131 -21.62841,-3.052691 z m 4.71149,2.34553 c 4.08256,-4.43659 11.589,-3.47152 16.76741,2.155961 5.17842,5.6275 6.06647,13.78491 1.98391,18.2215 -4.08256,4.43658 -11.59097,3.47369 -16.76939,-2.15381 -5.17842,-5.6275 -6.06449,-13.78704 -1.98193,-18.223651 z" style="fill:url(#radialGradient3033);fill-opacity:1;stroke:none"/><rect id="rect5876" width="4.35" height="4.35" x="85.382" y="99.494" rx=".77" ry=".77" style="fill:#ff7f2a;fill-opacity:1;fill-rule:nonzero;stroke:#d45500;stroke-width:.74403799;stroke-miterlimit:4;stroke-dasharray:none"/><rect id="rect5878" width="10.245" height="10.245" x="60.927" y="105.225" rx="1.813" ry="1.813" style="fill:#ff7f2a;fill-opacity:1;fill-rule:nonzero;stroke:#d45500;stroke-width:.74403799;stroke-miterlimit:4;stroke-dasharray:none"/><rect id="rect5880" width="6.19" height="6.19" x="87.405" y="118.637" rx="1.095" ry="1.095" style="fill:#ff7f2a;fill-opacity:1;fill-rule:nonzero;stroke:#d45500;stroke-width:.74403799;stroke-miterlimit:4;stroke-dasharray:none"/></g></g></svg>