<svg xmlns="http://www.w3.org/2000/svg" width="200" height="208" fill="none" viewBox="0 0 200 208"><path fill="#5A60F3" fill-rule="evenodd" d="M166.089 47.104C180.102 22.1585 161.355 14.0436 141.406 17.0867C141.406 17.0867 139.678 6.04152 139.453 5.51556C156.171 0.594066 171.198 -0.795973 181.905 2.84818C211.584 16.4856 209.706 63.6342 126.116 119.95C94.0515 141.552 74.8721 150.455 50.2646 141.552C30.7289 148.389 13.8982 147.037 0.29834 136.029C56.9143 131.671 133.179 89.8196 166.089 47.104ZM37.8295 66.8276L43.0143 70.3966C23.8543 87.9411 11.4564 106.35 14.9127 119.987C9.27739 104.697 19.6088 85.424 37.8295 66.8276Z" clip-rule="evenodd"/><path fill="#5A60F3" d="M189.05 123.556C171.508 160.368 132.683 183.93 88.9178 196.899C125.664 198.111 176.518 187.292 199.755 145.83C194.599 149.389 191.334 150.489 186.706 150.236C190.15 142.705 190.783 129.823 189.05 123.556Z"/><path fill="#F5B523" fill-rule="evenodd" d="M151.715 190.271C154.317 195.764 156.92 200.969 158.654 204.727C158.944 205.594 158.94 206.462 158.073 206.751C157.495 207.329 156.631 207.329 155.763 206.751L137.835 194.608C142.75 193.452 147.378 192.006 151.715 190.271ZM118.466 181.598L91.2883 163.095L104.587 138.231C111.525 134.761 118.175 130.425 124.825 125.51L152.872 138.52L91.5763 163.095L133.498 151.819C133.498 151.819 136.97 159.336 141.596 168.877C134.368 173.503 126.851 177.839 118.466 181.598ZM152.872 138.52L129.161 122.04C134.076 118.282 141.02 113.077 148.247 107.295L152.872 138.52ZM142.465 67.6865C132.635 76.0709 120.199 84.7443 110.369 91.1048C105.743 93.9959 101.121 96.8872 96.4947 99.4892L31.1558 54.3871L134.08 8.12866L142.465 67.6865Z" clip-rule="evenodd"/></svg>